<svg width="300" height="400" viewBox="0 0 300 400" fill="#2c387e" xmlns="http://www.w3.org/2000/svg">
<path d="M5 5V395H295V5H5ZM0 0H300V400H0V0ZM0 295H300V300H0V295Z" fill="#2c387e"/>
<path d="M98.8992 373.5H89.8221V341C89.8221 340.365 89.6951 339.773 89.4412 339.223C89.2085 338.673 88.8805 338.196 88.4573 337.794C88.0553 337.371 87.5792 337.043 87.0291 336.811C86.479 336.578 85.8865 336.461 85.2518 336.461C84.617 336.461 84.0246 336.578 83.4744 336.811C82.9243 337.043 82.4376 337.371 82.0145 337.794C81.6124 338.196 81.2951 338.673 81.0623 339.223C80.8296 339.773 80.7132 340.365 80.7132 341V373.5H71.6043V341C71.6043 340.365 71.4879 339.773 71.2552 339.223C71.0224 338.673 70.6945 338.196 70.2713 337.794C69.8693 337.371 69.3932 337.043 68.8431 336.811C68.2929 336.578 67.7005 336.461 67.0657 336.461C66.431 336.461 65.8385 336.578 65.2884 336.811C64.7383 337.043 64.2516 337.371 63.8284 337.794C63.4264 338.196 63.109 338.673 62.8763 339.223C62.6435 339.773 62.5272 340.365 62.5272 341V373.5H53.4183V341C53.4183 339.117 53.7674 337.35 54.4656 335.7C55.185 334.028 56.1583 332.579 57.3856 331.352C58.6339 330.103 60.0833 329.13 61.7337 328.432C63.4053 327.712 65.1826 327.353 67.0657 327.353C68.7584 327.353 70.3877 327.659 71.9534 328.273C73.5192 328.865 74.9262 329.733 76.1746 330.875C77.423 329.733 78.8195 328.865 80.3641 328.273C81.9298 327.659 83.5591 327.353 85.2518 327.353C87.1349 327.353 88.9017 327.712 90.5521 328.432C92.2236 329.13 93.673 330.103 94.9002 331.352C96.1486 332.579 97.1219 334.028 97.8201 335.7C98.5395 337.35 98.8992 339.117 98.8992 341V373.5ZM116.355 330.272C116.355 331.076 116.197 331.828 115.879 332.526C115.583 333.224 115.17 333.838 114.641 334.367C114.112 334.875 113.488 335.287 112.769 335.604C112.071 335.901 111.319 336.049 110.515 336.049C109.711 336.049 108.95 335.901 108.23 335.604C107.532 335.287 106.918 334.875 106.389 334.367C105.882 333.838 105.469 333.224 105.152 332.526C104.855 331.828 104.707 331.076 104.707 330.272C104.707 329.49 104.855 328.749 105.152 328.051C105.469 327.331 105.882 326.718 106.389 326.21C106.918 325.681 107.532 325.268 108.23 324.972C108.95 324.655 109.711 324.496 110.515 324.496C111.319 324.496 112.071 324.655 112.769 324.972C113.488 325.268 114.112 325.681 114.641 326.21C115.17 326.718 115.583 327.331 115.879 328.051C116.197 328.749 116.355 329.49 116.355 330.272ZM114.864 373.5H106.136V339.508H114.864V373.5ZM132.51 373.5H123.846V348.141H119.624V339.508H123.846V337.89C123.846 335.795 124.237 333.827 125.02 331.986C125.824 330.146 126.914 328.548 128.289 327.194C129.685 325.819 131.304 324.739 133.145 323.957C134.986 323.153 136.953 322.75 139.048 322.75H145.555V331.383H139.048C138.117 331.383 137.25 331.553 136.446 331.891C135.663 332.208 134.975 332.663 134.383 333.256C133.811 333.827 133.356 334.515 133.018 335.319C132.679 336.102 132.51 336.959 132.51 337.89V339.508H143.142V348.141H132.51V373.5ZM171.992 369.533C171.294 370.167 170.543 370.771 169.739 371.342C168.956 371.892 168.131 372.379 167.263 372.802C166.396 373.204 165.497 373.521 164.566 373.754C163.656 374.008 162.725 374.135 161.773 374.135C159.678 374.135 157.71 373.764 155.869 373.024C154.029 372.283 152.41 371.236 151.013 369.882C149.638 368.507 148.548 366.846 147.744 364.899C146.962 362.931 146.57 360.731 146.57 358.297V339.508H155.203V358.297C155.203 359.44 155.372 360.466 155.711 361.376C156.07 362.265 156.547 363.016 157.139 363.629C157.731 364.243 158.419 364.708 159.202 365.026C160.006 365.343 160.863 365.502 161.773 365.502C162.661 365.502 163.497 365.301 164.28 364.899C165.084 364.476 165.782 363.926 166.375 363.249C166.967 362.571 167.433 361.81 167.771 360.963C168.11 360.096 168.279 359.207 168.279 358.297V339.508H176.944V373.5H174.849L171.992 369.533ZM192.242 373.5H183.577V339.508H185.672L188.528 342.809C189.925 341.54 191.501 340.566 193.257 339.889C195.034 339.191 196.886 338.842 198.811 338.842C200.885 338.842 202.842 339.244 204.683 340.048C206.524 340.831 208.132 341.92 209.507 343.317C210.882 344.692 211.962 346.311 212.744 348.173C213.548 350.014 213.951 351.981 213.951 354.076V373.5H205.286V354.076C205.286 353.188 205.117 352.352 204.778 351.569C204.44 350.765 203.974 350.067 203.382 349.474C202.789 348.882 202.102 348.416 201.319 348.078C200.536 347.739 199.7 347.57 198.811 347.57C197.902 347.57 197.045 347.739 196.241 348.078C195.437 348.416 194.738 348.882 194.146 349.474C193.553 350.067 193.088 350.765 192.749 351.569C192.411 352.352 192.242 353.188 192.242 354.076V373.5ZM233.66 365.185C233.999 365.29 234.337 365.364 234.676 365.407C235.014 365.428 235.353 365.438 235.691 365.438C236.538 365.438 237.352 365.322 238.135 365.089C238.918 364.857 239.648 364.529 240.325 364.105C241.023 363.661 241.637 363.132 242.166 362.519C242.716 361.884 243.16 361.186 243.499 360.424L249.846 366.803C249.042 367.946 248.111 368.972 247.054 369.882C246.017 370.792 244.885 371.564 243.658 372.199C242.451 372.833 241.171 373.31 239.817 373.627C238.484 373.965 237.109 374.135 235.691 374.135C233.3 374.135 231.047 373.69 228.931 372.802C226.836 371.913 224.995 370.675 223.409 369.088C221.843 367.501 220.605 365.618 219.695 363.439C218.785 361.238 218.33 358.826 218.33 356.203C218.33 353.515 218.785 351.061 219.695 348.839C220.605 346.618 221.843 344.724 223.409 343.158C224.995 341.592 226.836 340.376 228.931 339.508C231.047 338.641 233.3 338.207 235.691 338.207C237.109 338.207 238.495 338.376 239.849 338.715C241.203 339.053 242.483 339.54 243.689 340.175C244.916 340.81 246.059 341.592 247.117 342.523C248.175 343.433 249.106 344.459 249.91 345.602L233.66 365.185ZM238.103 347.316C237.701 347.168 237.299 347.073 236.897 347.03C236.516 346.988 236.114 346.967 235.691 346.967C234.506 346.967 233.385 347.189 232.327 347.633C231.29 348.056 230.38 348.67 229.597 349.474C228.836 350.278 228.233 351.251 227.788 352.394C227.344 353.515 227.122 354.785 227.122 356.203C227.122 356.52 227.132 356.88 227.154 357.282C227.196 357.684 227.249 358.096 227.312 358.52C227.397 358.922 227.492 359.313 227.598 359.694C227.704 360.075 227.841 360.413 228.011 360.709L238.103 347.316Z" fill="#2c387e"/>
<path d="M219.968 218.5H192.038V118.5C192.038 116.547 191.647 114.724 190.866 113.031C190.15 111.339 189.141 109.874 187.839 108.637C186.602 107.335 185.137 106.326 183.444 105.609C181.751 104.893 179.929 104.535 177.975 104.535C176.022 104.535 174.199 104.893 172.507 105.609C170.814 106.326 169.317 107.335 168.014 108.637C166.777 109.874 165.801 111.339 165.085 113.031C164.369 114.724 164.011 116.547 164.011 118.5V218.5H135.983V118.5C135.983 116.547 135.625 114.724 134.909 113.031C134.193 111.339 133.184 109.874 131.882 108.637C130.645 107.335 129.18 106.326 127.487 105.609C125.794 104.893 123.971 104.535 122.018 104.535C120.065 104.535 118.242 104.893 116.55 105.609C114.857 106.326 113.36 107.335 112.057 108.637C110.82 109.874 109.844 111.339 109.128 113.031C108.412 114.724 108.054 116.547 108.054 118.5V218.5H80.0262V118.5C80.0262 112.706 81.1004 107.27 83.2488 102.191C85.4624 97.0482 88.4572 92.5885 92.2332 88.8125C96.0744 84.9714 100.534 81.9766 105.612 79.8281C110.755 77.6146 116.224 76.5078 122.018 76.5078C127.227 76.5078 132.24 77.4518 137.057 79.3398C141.875 81.1628 146.205 83.832 150.046 87.3477C153.887 83.832 158.184 81.1628 162.936 79.3398C167.754 77.4518 172.767 76.5078 177.975 76.5078C183.77 76.5078 189.206 77.6146 194.284 79.8281C199.427 81.9766 203.887 84.9714 207.663 88.8125C211.504 92.5885 214.499 97.0482 216.647 102.191C218.861 107.27 219.968 112.706 219.968 118.5V218.5Z" fill="#2c387e"/>
</svg>
